<?xml version="1.0" encoding="UTF-8"?>
<svg id="Full" xmlns="http://www.w3.org/2000/svg" width="97.52866" height="96.76433" viewBox="0 0 97.52866 96.76433">
  <path d="M84.15606,41.96177v-10.08917h-5.19745v-4.96814h-4.96814v-5.19745h-4.9682v-4.81531h-5.04456v-4.96814h-5.12103v-4.96814h-20.10193l-.00537,4.96814h-4.96277v5.00635h-5.12103v4.89172h-4.96814v5.08282h-5.00635v5.00635h-5.04462v9.82166h-5.08276v15.05731h5.08276v5.00641h20.02551v-5.00159h30.26752v4.96332h20.14014v-4.73883h5.04456v-15.05731h-4.96814ZM43.72295,51.89805h-15.09558v-20.10187h5.12103v14.9809h5.08282v-4.92999h4.89172v10.05096ZM69.08117,52.05095h-15.09552v-10.05096h4.89172v4.92993h5.08282v-14.9809h5.12097v20.10193Z" fill="#231f20"/>
  <polygon points="38.82166 76.70064 38.82166 86.6465 13.68472 86.6465 13.68472 81.67357 8.75478 81.67357 8.75478 71.74204 13.68472 71.74204 13.68472 66.64013 23.78822 66.64013 23.78822 71.65605 33.74841 71.65605 33.74841 76.64331 38.82166 76.64331 38.82166 76.70064" fill="#231f20"/>
  <polygon points="58.83042 76.70064 58.83042 86.6465 83.96736 86.6465 83.96736 81.67357 88.8973 81.67357 88.8973 71.74204 83.96736 71.74204 83.96736 66.64013 73.86386 66.64013 73.86386 71.65605 63.90366 71.65605 63.90366 76.64331 58.83042 76.64331 58.83042 76.70064" fill="#231f20"/>
</svg>