<?xml version="1.0" encoding="UTF-8"?>
<svg id="Layer_10" data-name="Layer 10" xmlns="http://www.w3.org/2000/svg" width="61.0994" height="81.1326" viewBox="0 0 61.0994 81.1326">
  <path d="M50.2109,55.4188v-5.0303h9.9459v-4.9872h-4.9586v-4.973h-14.9904v-5.0016H10.2841l.0143,5.0016h-5.0159v4.973H.3255v5.0159h9.973v5.0016h5.0016v4.9729h-4.9872v9.9889h-5.0159v4.9872H.3255v5.0016h19.9474v-9.9602h5.0016v-4.9729h9.9602l-.0143,4.9729,5.0016.0143v9.9745h19.9347v-5.0159h-4.973v-4.973h-4.9872v-10.0319h-4.9729v-4.9586h4.9872ZM25.2507,55.4045h-4.9872v-5.0255h4.9872v5.0255ZM40.1838,55.4045h-4.9872v-5.0255h4.9872v5.0255Z" fill="#231f20"/>
  <polygon points="15.3001 .5 40.2507 .5 40.2507 5.5032 55.1695 5.5032 55.1695 10.4618 40.222 10.4618 40.222 20.4793 45.2093 20.4793 45.2093 25.4666 55.1695 25.4666 55.1695 30.4682 35.2348 30.4682 35.2348 25.4809 40.2364 25.4809 40.2364 20.4363 35.2348 20.4363 35.2348 10.4618 25.2459 10.4618 25.2459 15.4841 20.273 15.4841 20.273 20.4507 25.2602 20.4507 25.2602 25.4523 15.2857 25.4523 15.2857 15.4777 10.2985 15.4777 10.2985 25.4523 15.2857 25.4523 15.2857 30.4395 5.2969 30.4395 5.2969 15.4491 10.2985 15.4491 10.2985 5.4746 15.2571 5.4746 15.3001 .5" fill="#231f20"/>
</svg>