<?xml version="1.0" encoding="UTF-8"?>
<svg xmlns="http://www.w3.org/2000/svg" width="61.0994" height="81.1326" viewBox="0 0 61.0994 81.1326">
  <g id="Layer_8" data-name="Layer 8">
    <rect x="20.2634" y="50.379" width="4.9873" height="5.0255" fill="none"/>
    <rect x="20.2634" y="50.379" width="4.9873" height="5.0255" fill="#fff"/>
    <rect x="20.2634" y="50.379" width="4.9873" height="5.0255" fill="none"/>
    <rect x="35.1965" y="50.379" width="4.9873" height="5.0255" fill="none"/>
    <rect x="20.2634" y="50.379" width="4.9873" height="5.0255" fill="none"/>
    <path d="M50.2109,55.4188v-5.0303h9.9459v-4.9872h-4.9586v-4.973h-14.9904v-5.0016H10.2841l.0143,5.0016h-5.0159v4.973H.3255v5.0159h9.973v5.0016h5.0016v4.9729h-4.9872v9.9889h-5.0159v4.9872H.3255v5.0016h19.9474v-9.9602h5.0016v-4.9729h9.9602l-.0143,4.9729,5.0016.0143v9.9745h19.9347v-5.0159h-4.973v-4.973h-4.9872v-10.0319h-4.9729v-4.9586h4.9872ZM25.2507,55.4045h-4.9872v-5.0255h4.9872v5.0255ZM40.1838,55.4045h-4.9872v-5.0255h4.9872v5.0255Z" fill="#231f20"/>
  </g>
  <g id="Head">
    <polygon points="15.3001 .5 40.2507 .5 40.2507 5.5032 55.1695 5.5032 55.1695 10.4618 40.222 10.4618 40.222 20.4793 45.2093 20.4793 45.2093 25.4666 55.1695 25.4666 55.1695 30.4682 35.2348 30.4682 35.2348 25.4809 40.2364 25.4809 40.2364 20.4363 35.2348 20.4363 35.2348 10.4618 25.2459 10.4618 25.2459 15.4841 20.273 15.4841 20.273 20.4507 25.2602 20.4507 25.2602 25.4523 15.2857 25.4523 15.2857 15.4777 10.2985 15.4777 10.2985 25.4523 15.2857 25.4523 15.2857 30.4395 5.2969 30.4395 5.2969 15.4491 10.2985 15.4491 10.2985 5.4746 15.2571 5.4746 15.3001 .5" fill="#231f20"/>
  </g>
  <g id="Layer_9" data-name="Layer 9">
    <rect x="25.5539" y="65.6047" width="10.0116" height="2.0673" fill="none"/>
    <polygon points="25.5539 65.6047 35.5655 65.6047 35.5655 67.672 50.5778 67.672 50.5778 65.6047 60.5994 65.6047 60.5994 45.5715 55.5986 45.5715 55.5986 40.5607 40.5663 40.5607 40.5663 35.54 50.5878 35.54 50.5878 30.5392 55.5786 30.5392 55.5786 25.5084 60.5994 25.5084 60.5994 20.5476 55.5986 20.5476 55.5986 15.5168 45.5671 15.5168 45.5671 10.5161 55.5986 10.5161 55.5986 5.5052 40.5663 5.5052 40.5663 .5 15.5023 .5 15.5123 5.5153 10.4916 5.5153 10.4916 15.5268 5.5208 15.5268 5.5208 30.5392 15.5324 30.5392 15.5324 35.5599 10.4916 35.5599 10.4916 40.5507 5.4908 40.5507 5.4908 45.5615 .5 45.5615 .5 65.5847 10.5115 65.5847 10.5115 67.672 25.5539 67.672 25.5539 65.6047" fill="none" stroke="#231f20"/>
    <polygon points="35.5655 70.6055 40.5563 70.6055 40.5563 80.6326 60.5994 80.6326 60.5994 75.6262 55.5986 75.6262 55.5986 70.6154 50.5778 70.6154 50.5778 67.672 35.5655 67.672 35.5655 70.6055" fill="none" stroke="#231f20"/>
    <polygon points="5.5008 70.6055 5.5008 75.6162 .5 75.6162 .5 80.6326 20.5332 80.6326 20.5332 70.6055 25.5539 70.6055 25.5539 67.672 10.5115 67.672 10.5115 70.6055 5.5008 70.6055" fill="none" stroke="#231f20"/>
  </g>
</svg>