<?xml version="1.0" encoding="UTF-8"?>
<svg xmlns="http://www.w3.org/2000/svg" viewBox="0 0 558 508">
  <defs>
    <style>
      .cls-1 {
        fill: #fff;
      }

      .cls-2 {
        fill: none;
        stroke: #231f20;
        stroke-width: 5px;
      }
    </style>
  </defs>
  <g id="Layer_4" data-name="Layer 4">
    <g>
      <path class="cls-1" d="M205.01,27.46v28.62h-28.59v57.23c-9.51,0-19.08,0-28.59,0v85.85h57.17c.04-9.52-.05-19.1,0-28.62,19.03.1,38.14-.07,57.17,0v-28.62h-28.59v-28.62h28.59v-28.62h57.17v57.23c9.51.08,19.08-.1,28.59,0-.05,9.52.04,19.1,0,28.62h-28.59v28.62h114.35v-28.62h-57.17v-28.62c-9.51-.08-19.08.1-28.59,0,.1-19.05-.07-38.18,0-57.23h85.76v-28.62h-85.76v-28.62h114.35v257.54h-28.59v-28.62h-85.76v-28.62h-171.52v28.62h-28.59v28.62h-28.59v28.62h57.17v28.62h28.59v28.62h-28.59v57.23h-28.59v28.62h-28.59v28.62h114.35v-57.23h28.59v-28.62h57.17v28.62h28.59v57.23h114.35v1.43H117.82V27.46h87.19Z"/>
      <path class="cls-1" d="M176.42,113.31c9.51,0,19.08,0,28.59,0-.09,19.06.09,38.18,0,57.24-9.51-.05-19.08.03-28.59,0,.01-19.06,0-38.18,0-57.24Z"/>
      <path d="M462.28,485.31h-114.35v-57.23h-28.59v-28.62h-57.17v28.62h-28.59v57.23h-114.35v-28.62h28.59v-28.62h28.59v-57.23h28.59v-28.62h-28.59v-28.62h-57.17v-28.62h28.59v-28.62h28.59v-28.62h171.52v28.62h85.76v28.62h28.59v28.62h-57.17v28.62h-28.59v28.62h28.59v57.23h28.59v28.62h28.59v28.62ZM262.18,313.62h-28.59v28.62h28.59v-28.62ZM347.94,313.62h-28.59v28.62h28.59v-28.62Z"/>
      <path d="M347.94,27.46v28.62h85.76v28.62h-85.76c-.07,19.05.1,38.18,0,57.23,9.51.1,19.08-.08,28.59,0v28.62h57.17v28.62h-114.35v-28.62h28.59c.04-9.52-.05-19.1,0-28.62-9.51-.1-19.08.08-28.59,0v-57.23h-57.17v28.62h-28.59v28.62h28.59v28.62c-19.03-.07-38.14.1-57.17,0,.1-19.06-.08-38.18,0-57.24-9.51.01-19.08,0-28.59,0v-57.23h28.59v-28.62h142.93Z"/>
      <path d="M176.42,113.31c0,19.06,0,38.18,0,57.24,9.51.02,19.08-.06,28.59,0-.05,9.52.04,19.1,0,28.62h-57.17v-85.85c9.51,0,19.08,0,28.59,0Z"/>
      <polygon class="cls-1" points="462.28 313.62 462.28 456.7 433.7 456.7 433.7 428.08 405.11 428.08 405.11 370.85 376.52 370.85 376.52 342.23 405.11 342.23 405.11 313.62 462.28 313.62"/>
      <rect class="cls-1" x="233.59" y="313.62" width="28.59" height="28.62"/>
      <rect class="cls-1" x="319.35" y="313.62" width="28.59" height="28.62"/>
    </g>
  </g>
  <g id="Pen">
    <polygon class="cls-2" points="204.81 27.46 348.46 27.46 348.46 56.15 434.62 56.15 434.62 84.87 377.12 84.87 377.12 113.53 434.62 113.53 434.62 142.36 463.28 142.36 463.28 170.8 434.51 170.8 434.51 199.63 405.9 199.63 405.9 228.29 348.46 228.29 348.46 257.07 434.62 257.07 434.62 285.79 463.28 285.79 463.28 400.61 405.84 400.61 405.84 429.33 434.62 429.33 434.62 458.05 463.28 458.05 463.28 486.75 348.4 486.75 348.4 429.27 319.8 429.27 319.8 400.61 262.42 400.61 262.42 429.27 233.64 429.27 233.64 486.75 118.82 486.75 118.82 457.99 147.48 457.99 147.48 429.27 176.2 429.27 176.2 400.5 118.82 400.5 118.82 285.73 147.42 285.73 147.42 257.01 176.09 257.01 176.09 228.41 204.98 228.41 204.98 199.63 147.6 199.63 147.6 113.59 176.09 113.59 176.09 56.2 204.86 56.2 204.81 27.46"/>
  </g>
</svg>