<?xml version="1.0" encoding="UTF-8"?>
<svg xmlns="http://www.w3.org/2000/svg" width="61.0994" height="81.1326" viewBox="0 0 61.0994 81.1326">
  <g id="Layer_4" data-name="Layer 4">
    <g>
      <path d="M15.288.5v4.9927h-4.9875v9.9854c-1.6592.0001-3.3284-.0001-4.9875,0v14.978h9.975c.0063-1.6605-.0087-3.3322,0-4.9927,3.3208.0171,6.6541-.0127,9.975,0v-4.9927h-4.9875v-4.9927h4.9875v-4.9927h9.975v9.9854c1.6585.0134,3.329-.0183,4.9875,0-.0087,1.6605.0063,3.3322,0,4.9927h-4.9875v4.9927h19.95v-4.9927h-9.975v-4.9927c-1.6585-.0134-3.329.0183-4.9875,0,.0174-3.3243-.0129-6.661,0-9.9854h14.9625v-4.9927h-14.9625V.5h20.1994v80.1326H.3255v-.2496h19.95v-9.9854h4.9875v-4.9927h9.975v4.9927h4.9875v9.9854h19.95v-4.9927h-4.9875v-4.9927h-4.9875v-9.9854h-4.9875v-4.9927h4.9875v-4.9927h9.975v-4.9927h-4.9875v-4.9927h-14.9625v-4.9927H10.3005v4.9927h-4.9875v4.9927H.3255V.5h14.9625Z" fill="#fff"/>
      <path d="M10.3005,15.478c1.6596-.0001,3.3292.0008,4.9888-.0013-.0152,3.3248.0161,6.6619-.0013,9.9867-1.6592-.0086-3.3296.0055-4.9888.0013.0023-3.3251.0012-6.6616.0013-9.9867Z" fill="#fff"/>
      <path d="M.3255,45.4341h4.9875v-4.9927h4.9875v-4.9927h29.925v4.9927h14.9625v4.9927h4.9875v4.9927h-9.975v4.9927h-4.9875v4.9927h4.9875v9.9854h4.9875v4.9927h4.9875v4.9927h-19.95v-9.9854h-4.9875v-4.9927h-9.975v4.9927h-4.9875v9.9854H.3255v-4.9927h4.9875v-4.9927h4.9875v-9.9854h4.9875v-4.9927h-4.9875v-4.9927H.3255v-4.9927ZM25.263,50.4268h-4.9875v4.9927h4.9875v-4.9927ZM40.2256,50.4268h-4.9875v4.9927h4.9875v-4.9927Z"/>
      <path d="M40.2256.5v4.9927h14.9625v4.9927h-14.9625c-.0129,3.3243.0174,6.6611,0,9.9854,1.6585.0183,3.329-.0134,4.9875,0v4.9927h9.975v4.9927h-19.95v-4.9927h4.9875c.0063-1.6605-.0087-3.3322,0-4.9927-1.6585-.0183-3.329.0134-4.9875,0v-9.9854h-9.975v4.9927h-4.9875v4.9927h4.9875v4.9927c-3.3209-.0127-6.6542.0171-9.975,0,.0174-3.3247-.0139-6.6619.0013-9.9867-1.6596.0021-3.3292.0011-4.9888.0013V5.4927h4.9875V.5h24.9375Z"/>
      <path d="M10.3005,15.478c0,3.3251.0011,6.6616-.0013,9.9867,1.6592.0042,3.3296-.0099,4.9888-.0013-.0087,1.6605.0063,3.3322,0,4.9927H5.313v-14.978c1.6591-.0001,3.3283.0001,4.9875,0Z"/>
      <polygon points=".3255 50.4268 10.3005 50.4268 10.3005 55.4195 15.288 55.4195 15.288 60.4122 10.3005 60.4122 10.3005 70.3976 5.313 70.3976 5.313 75.3902 .3255 75.3902 .3255 50.4268" fill="#fff"/>
      <rect x="20.2755" y="50.4268" width="4.9875" height="4.9927" fill="#fff"/>
      <rect x="35.2381" y="50.4268" width="4.9875" height="4.9927" fill="#fff"/>
    </g>
  </g>
  <g id="Pen">
    <polygon points="15.5023 .5 40.5663 .5 40.5663 5.5052 55.5986 5.5052 55.5986 10.516 45.5671 10.516 45.5671 15.5168 55.5986 15.5168 55.5986 20.5476 60.5994 20.5476 60.5994 25.5084 55.5786 25.5084 55.5786 30.5391 50.5878 30.5391 50.5878 35.5399 40.5663 35.5399 40.5663 40.5607 55.5986 40.5607 55.5986 45.5715 60.5994 45.5715 60.5994 65.6046 50.5778 65.6046 50.5778 70.6154 55.5986 70.6154 55.5986 75.6262 60.5994 75.6262 60.5994 80.6326 40.5563 80.6326 40.5563 70.6054 35.5655 70.6054 35.5655 65.6046 25.5539 65.6046 25.5539 70.6054 20.5331 70.6054 20.5331 80.6326 .5 80.6326 .5 75.6162 5.5008 75.6162 5.5008 70.6054 10.5116 70.6054 10.5116 65.5846 .5 65.5846 .5 45.5615 5.4908 45.5615 5.4908 40.5507 10.4916 40.5507 10.4916 35.5599 15.5324 35.5599 15.5324 30.5391 5.5208 30.5391 5.5208 15.5268 10.4916 15.5268 10.4916 5.5152 15.5124 5.5152 15.5023 .5" fill="none" stroke="#231f20"/>
  </g>
</svg>